<svg viewBox="0 0 240 240" xmlns="http://www.w3.org/2000/svg" role="img" aria-label="マスコットキャラクター チャリン">
  <ellipse cx="120" cy="215" rx="55" ry="10" fill="#2f9e44" opacity="0.08"/>
  <rect x="104" y="50" width="32" height="10" rx="5" fill="none" stroke="#2f9e44" stroke-width="6"/>
  <path d="M55 70 h130 a10 10 0 0 1 10 10 v90 a10 10 0 0 1 -10 10 H55 a10 10 0 0 1 -10 -10 V80 a10 10 0 0 1 10 -10 Z"
        fill="#fff0e0" stroke="#2f9e44" stroke-width="6"/>
  <circle cx="70" cy="130" r="15" fill="#fff0e0" stroke="#2f9e44" stroke-width="5"/>
  <line x1="63" y1="130" x2="77" y2="130" stroke="#2f9e44" stroke-width="3"/>
  <line x1="70" y1="123" x2="70" y2="137" stroke="#2f9e44" stroke-width="3"/>
  <circle cx="98" cy="132" r="7" fill="#24242b"/>
  <circle cx="142" cy="132" r="7" fill="#24242b"/>
  <circle cx="100.5" cy="129" r="2.2" fill="#fff"/>
  <circle cx="144.5" cy="129" r="2.2" fill="#fff"/>
  <path d="M108 158 Q120 168 132 158" stroke="#1f6b2f" stroke-width="4" fill="none" stroke-linecap="round"/>
  <circle cx="154" cy="150" r="10" fill="#2f9e44" opacity="0.3"/>
  <path d="M62 178 q-18 4 -22 20" stroke="#2f9e44" stroke-width="6" fill="none" stroke-linecap="round"/>
  <path d="M178 178 q18 4 22 20" stroke="#2f9e44" stroke-width="6" fill="none" stroke-linecap="round"/>
</svg>
