<svg viewBox="0 0 240 240" xmlns="http://www.w3.org/2000/svg" role="img" aria-label="マスコットキャラクター ツナグ">
  <ellipse cx="120" cy="215" rx="55" ry="10" fill="#1971c2" opacity="0.08"/>
  <circle cx="108" cy="54" r="16" fill="none" stroke="#1971c2" stroke-width="6"/>
  <circle cx="132" cy="54" r="16" fill="none" stroke="#1971c2" stroke-width="6"/>
  <path d="M55 70 h130 a10 10 0 0 1 10 10 v90 a10 10 0 0 1 -10 10 H55 a10 10 0 0 1 -10 -10 V80 a10 10 0 0 1 10 -10 Z"
        fill="#fff0e0" stroke="#1971c2" stroke-width="6"/>
  <circle cx="86" cy="150" r="10" fill="#1971c2" opacity="0.3"/>
  <circle cx="154" cy="150" r="10" fill="#1971c2" opacity="0.3"/>
  <circle cx="98" cy="132" r="7" fill="#24242b"/>
  <circle cx="142" cy="132" r="7" fill="#24242b"/>
  <circle cx="100.5" cy="129" r="2.2" fill="#fff"/>
  <circle cx="144.5" cy="129" r="2.2" fill="#fff"/>
  <path d="M108 158 Q120 168 132 158" stroke="#114f87" stroke-width="4" fill="none" stroke-linecap="round"/>
  <path d="M165 100 l6 14 14 6 -14 6 -6 14 -6 -14 -14 -6 14 -6 z" fill="#3fb0a8"/>
  <circle cx="70" cy="95" r="4" fill="#3fb0a8"/>
  <path d="M62 178 q-18 4 -22 20" stroke="#1971c2" stroke-width="6" fill="none" stroke-linecap="round"/>
  <path d="M178 178 q18 4 22 20" stroke="#1971c2" stroke-width="6" fill="none" stroke-linecap="round"/>
</svg>
